#!OML:ASF E:\id_vita\Project 1\Capture day 1\Session 1\Female.ASF
:FULLY-SPECIFIED
:DEGREES
267
root 26.8837 14.8677 2.34093 -138.246 -77.2668 174.293
lowerback 11.2895 1.10232 -0.804083
upperback -3.10241 1.36088 0.0625982
thorax -9.7024 0.704904 0.255427
lowerneck 0.280396 5.98491 -3.22232
upperneck -31.8309 5.1895 -5.75512
head -10.1207 2.73126 -1.81327
rclavicle 2.127e-014 4.53229e-014
rhumerus -15.205 -2.26512 -21.9199
rradius 118.58
rwrist 7.7487
rhand -47.6971 31.7867
rfingers 7.12502
rthumb -20.3774 2.83582
lclavicle 2.127e-014 4.53229e-014
lhumerus -1.98306 8.71377 32.012
lradius 104.381
lwrist 0.264604
lhand -41.5445 36.5951
lfingers 7.12502
lthumb -14.4564 66.0716
rfemur -79.8188 1.97597 20.838
rtibia 34.3785
rfoot -9.45229 -15.4569
rtoes -20.955
lfemur -52.0692 0.704267 -32.6232
ltibia 71.1167
lfoot -20.6879 16.4518
ltoes -13.2955
268
root 26.9638 14.8639 2.37028 -136.327 -77.0744 171.845
lowerback 10.4789 0.956452 -1.04086
upperback -3.18748 1.1243 -0.0867
thorax -9.31894 0.599564 0.287753
lowerneck 0.909021 6.01569 -3.00841
upperneck -31.418 5.29595 -5.80378
head -10.0682 2.79274 -1.88668
rclavicle -1.19271e-014 -1.90833e-014
rhumerus -14.8311 -2.64862 -22.0141
rradius 118.346
rwrist 8.03542
rhand -48.7194 31.2192
rfingers 7.12502
rthumb -21.3595 2.37643
lclavicle -1.19271e-014 -1.90833e-014
lhumerus -1.23011 9.13626 32.083
lradius 104.083
lwrist 0.70655
lhand -41.1904 36.6644
lfingers 7.12502
lthumb -14.1151 66.165
rfemur -79.4061 1.35774 20.7426
rtibia 33.9071
rfoot -9.41606 -15.6235
rtoes -21.8389
lfemur -50.0398 0.239532 -33.2962
ltibia 68.4088
lfoot -21.9299 19.1339
ltoes -16.0711
269
root 27.0514 14.8668 2.40206 -134.732 -76.8365 169.899
lowerback 9.51187 0.820602 -1.25576
upperback -3.29598 0.912534 -0.210032
thorax -8.86957 0.503949 0.328836
lowerneck 1.60529 6.0172 -2.88255
upperneck -31.0974 5.36889 -5.74492
head -10.0728 2.83588 -1.90986
rclavicle -1.98785e-014 -5.52621e-014
rhumerus -14.3379 -3.124 -22.1457
rradius 118.147
rwrist 8.00922
rhand -48.9912 30.5579
rfingers 7.12502
rthumb -21.6206 1.74496
lclavicle -1.98785e-014 -5.52621e-014
lhumerus -0.61932 9.59073 32.251
lradius 103.907
lwrist 0.9862
lhand -40.7803 36.7384
lfingers 7.12502
lthumb -13.7199 66.2661
rfemur -79.1237 0.788028 20.7834
rtibia 33.299
rfoot -9.40536 -15.7989
rtoes -23.1829
lfemur -48.7352 -0.271523 -33.8933
ltibia 66.23
lfoot -22.8372 21.1171
ltoes -16.8027
270
root 27.1466 14.8738 2.43603 -132.879 -76.6762 167.658
lowerback 8.84163 0.681365 -1.42448
upperback -3.50086 0.694786 -0.38718
thorax -8.69651 0.4005 0.27894
lowerneck 1.71068 5.96852 -2.65699
upperneck -30.1439 5.46864 -5.61408
head -9.72798 2.87244 -1.8871
rclavicle 1.23246e-014 1.74931e-014
rhumerus -13.9957 -3.65112 -22.3659
rradius 117.997
rwrist 7.80441
rhand -48.8324 29.922
rfingers 7.12502
rthumb -21.468 1.0916
lclavicle 1.23246e-014 1.74931e-014
lhumerus 0.157229 9.82742 32.4294
lradius 103.617
lwrist 1.18891
lhand -40.8043 36.8403
lfingers 7.12502
lthumb -13.743 66.3665
rfemur -78.7351 0.174983 20.7042
rtibia 32.5416
rfoot -9.41298 -15.5802
rtoes -24.1986
lfemur -47.8468 -1.0304 -34.441
ltibia 64.6095
lfoot -23.5849 22.446
ltoes -16.5212
271
root 27.2404 14.886 2.47005 -131.041 -76.567 165.25
lowerback 8.30863 0.535985 -1.53801
upperback -3.58904 0.474802 -0.592948
thorax -8.4761 0.290975 0.16487
lowerneck 1.99455 5.94755 -2.45437
upperneck -29.5038 5.56718 -5.49757
head -9.53801 2.91035 -1.88149
rclavicle -3.598e-014 -4.53229e-014
rhumerus -13.6773 -4.21455 -22.758
rradius 117.879
rwrist 7.52605
rhand -48.7984 29.4693
rfingers 7.12502
rthumb -21.4354 0.63513
lclavicle -3.598e-014 -4.53229e-014
lhumerus 1.14079 10.0175 32.7313
lradius 103.253
lwrist 1.1604
lhand -40.9327 37.1421
lfingers 7.12502
lthumb -13.8668 66.6598
rfemur -78.0557 -0.407583 20.4228
rtibia 31.6415
rfoot -9.29342 -15.0987
rtoes -24.02
lfemur -46.9726 -1.85023 -35.0288
ltibia 63.4115
lfoot -24.5483 23.5559
ltoes -17.8466
